HIERARCHY
ROOT Pelvis
{
	OFFSET 0.000000 0.000000 0.000000
	CHANNELS 6 Xposition Yposition Zposition Zrotation Yrotation Xrotation 
	JOINT Left_hip
	{
		OFFSET 0.068973 -0.091024 -0.007589
		CHANNELS 3 Zrotation Yrotation Xrotation
		JOINT Left_knee
		{
			OFFSET 0.036482 -0.391037 -0.003979
			CHANNELS 3 Zrotation Yrotation Xrotation
			JOINT Left_ankle
			{
				OFFSET -0.012239 -0.415469 -0.043440
				CHANNELS 3 Zrotation Yrotation Xrotation
				JOINT Left_foot
				{
					OFFSET 0.023806 -0.058558 0.118702
					CHANNELS 3 Zrotation Yrotation Xrotation
					End Site
					{
						OFFSET 0.000000 0.000000 0.000000
					}
				}
			}
		}
	}
	JOINT Right_hip
	{
		OFFSET -0.066552 -0.090468 -0.003847
		CHANNELS 3 Zrotation Yrotation Xrotation
		JOINT Right_knee
		{
			OFFSET -0.042435 -0.398340 -0.006400
			CHANNELS 3 Zrotation Yrotation Xrotation
			JOINT Right_ankle
			{
				OFFSET 0.014931 -0.415421 -0.041327
				CHANNELS 3 Zrotation Yrotation Xrotation
				JOINT Right_foot
				{
					OFFSET -0.021472 -0.049410 0.121889
					CHANNELS 3 Zrotation Yrotation Xrotation
					End Site
					{
						OFFSET 0.000000 0.000000 0.000000
					}
				}
			}
		}
	}
	JOINT Spine1
	{
		OFFSET -0.002904 0.105700 -0.022855
		CHANNELS 3 Zrotation Yrotation Xrotation
		JOINT Spine2
		{
			OFFSET 0.004179 0.132554 -0.002501
			CHANNELS 3 Zrotation Yrotation Xrotation
			JOINT Spine3
			{
				OFFSET 0.001987 0.049603 0.025988
				CHANNELS 3 Zrotation Yrotation Xrotation
				JOINT Neck
				{
					OFFSET -0.003935 0.211336 -0.045638
					CHANNELS 3 Zrotation Yrotation Xrotation
					JOINT Head
					{
						OFFSET 0.003906 0.065991 0.051018
						CHANNELS 3 Zrotation Yrotation Xrotation
						End Site
						{
							OFFSET 0.000000 0.000000 0.000000
						}
					}
				}
				JOINT Left_collar
				{
					OFFSET 0.072882 0.117751 -0.036270
					CHANNELS 3 Zrotation Yrotation Xrotation
					JOINT Left_shoulder
					{
						OFFSET 0.082118 0.032630 -0.005771
						CHANNELS 3 Zrotation Yrotation Xrotation
						JOINT Left_elbow
						{
							OFFSET 0.263305 -0.015144 -0.028095
							CHANNELS 3 Zrotation Yrotation Xrotation
							JOINT Left_wrist
							{
								OFFSET 0.250741 0.010115 -0.000759
								CHANNELS 3 Zrotation Yrotation Xrotation
								JOINT Left_palm
								{
									OFFSET 0.080683 -0.009989 -0.013613
									CHANNELS 3 Zrotation Yrotation Xrotation
									End Site
									{
										OFFSET 0.000000 0.000000 0.000000
									}
								}
							}
						}
					}
				}
				JOINT Right_collar
				{
					OFFSET -0.074811 0.116132 -0.040385
					CHANNELS 3 Zrotation Yrotation Xrotation
					JOINT Right_shoulder
					{
						OFFSET -0.085089 0.032943 -0.007484
						CHANNELS 3 Zrotation Yrotation Xrotation
						JOINT Right_elbow
						{
							OFFSET -0.254763 -0.014219 -0.020321
							CHANNELS 3 Zrotation Yrotation Xrotation
							JOINT Right_wrist
							{
								OFFSET -0.256597 0.009233 -0.005063
								CHANNELS 3 Zrotation Yrotation Xrotation
								JOINT Right_palm
								{
									OFFSET -0.080528 -0.007219 -0.010379
									CHANNELS 3 Zrotation Yrotation Xrotation
									End Site
									{
										OFFSET 0.000000 0.000000 0.000000
									}
								}
							}
						}
					}
				}
			}
		}
	}
}
MOTION
Frames: 10
Frame Time: 0.100000
0.000000 0.000000 0.000000 -179.850848 -1.623975 -18.249422 9.369491 10.516796 19.253058 -3.714355 9.179751 -9.839435 -5.179625 12.147066 1.659431 5.181559 4.989336 -2.998548 -7.811972 -9.892515 14.769052 3.664206 -14.149823 -3.685517 4.778165 -8.804068 1.993938 -0.649251 -4.548382 3.181022 2.338019 -0.079087 -1.944721 -0.506389 -1.797670 5.990974 0.476370 -1.817675 2.293505 2.676990 12.298010 10.451859 -3.514346 4.493645 -0.662332 -24.218593 -0.028805 9.753176 -53.625467 -0.771189 7.452817 4.579063 -22.236034 15.136047 -10.652240 -11.400284 4.967113 -7.995016 -0.561525 -22.266180 21.531976 6.741775 8.502650 53.314971 4.901943 12.388333 -6.537808 22.440227 7.060598 4.878838 6.558059 1.300977 7.328741 2.275721 -8.118307 
0.002400 0.000141 0.000003 -179.827774 -2.170979 -18.177681 9.551342 10.599832 19.189881 -3.640563 9.476325 -9.789492 -5.245415 12.204526 1.898965 4.945105 5.317667 -3.010315 -7.585752 -9.856745 15.394385 4.002193 -13.670729 -5.237795 5.322800 -9.051113 2.245231 -1.689233 -4.089097 3.051606 2.262446 0.179881 -2.030382 -0.793203 -1.768241 5.907490 0.312796 -1.679823 2.635508 2.384626 12.471036 9.784458 -3.513056 4.026742 -2.064895 -24.312663 0.016185 10.190002 -54.252402 0.637612 6.840533 4.041158 -18.350057 14.451949 -12.397305 -10.418362 4.526154 -8.294433 -0.889181 -23.006189 21.236971 7.205606 8.336231 54.028619 4.983838 12.612440 -6.358630 23.290641 7.320682 5.287167 6.361772 1.335822 8.015485 2.361519 -8.577292 
0.003709 0.000189 -0.001967 -179.873330 -1.683617 -18.275373 9.616993 10.499536 18.801838 -3.593833 9.351498 -9.244425 -5.201427 12.015620 1.930140 4.759095 5.396693 -3.029502 -7.545961 -9.982119 15.456651 3.980777 -13.843638 -5.153380 5.124214 -9.168036 2.190151 -1.536228 -4.147619 3.061158 2.015374 0.341443 -1.741707 -0.949302 -1.755349 6.256796 0.222548 -1.649489 2.520433 2.422052 12.184919 9.529917 -3.147241 3.569827 -2.517434 -24.536705 -0.548689 10.280172 -53.875772 0.264880 6.969829 3.987086 -18.526144 14.693617 -12.747318 -10.484760 4.993279 -8.289507 -0.888677 -23.033413 21.347353 7.546628 8.622506 54.087523 4.562335 12.514360 -6.495456 23.027335 7.327845 5.438120 6.436712 1.226506 8.012150 2.391418 -8.484878 
0.003058 0.000465 -0.004363 179.938102 -0.268591 -18.252863 9.510398 10.168265 18.275256 -3.649179 8.916753 -9.123590 -5.163443 11.644805 1.946881 4.673445 5.279733 -2.972518 -7.649052 -10.107525 15.666145 4.095261 -14.246042 -5.401797 4.670519 -9.307791 2.345291 -0.859483 -4.420046 3.270540 1.688165 0.350682 -1.446285 -0.953607 -2.000193 6.448055 0.295639 -1.874333 2.140015 2.659216 11.589430 9.629903 -2.516882 3.331014 -1.959621 -24.723833 -1.618023 10.132774 -53.098613 -1.580870 7.583412 3.945115 -20.638098 15.451832 -12.013668 -11.229446 5.679350 -8.024346 -0.639317 -22.548912 21.508825 7.672634 9.104167 53.710821 3.966966 12.382725 -6.630703 21.720089 7.286066 5.381493 6.514524 1.034572 7.492777 2.401463 -8.109484 
-0.000422 0.000860 -0.007702 179.675947 1.068921 -18.023237 9.274955 9.925681 17.635169 -3.797759 8.544967 -9.293586 -4.963325 11.162887 2.014947 4.351452 5.246845 -2.862911 -7.651885 -10.230428 15.354985 4.006517 -14.903819 -5.307275 4.052979 -9.482250 2.566923 -0.201680 -4.883365 3.571097 1.340745 0.143659 -0.905032 -0.881381 -2.426910 6.192718 0.389543 -2.302810 1.722533 3.242142 9.112712 9.589803 -0.979082 1.657901 -1.455842 -24.826163 -3.103755 9.964242 -52.177019 -4.203564 8.030336 4.302879 -23.528087 14.837343 -11.096011 -12.214272 5.325456 -7.784879 -0.237262 -21.796992 21.191293 7.794912 9.412488 53.804912 2.728673 12.125064 -7.543851 21.278249 6.359087 5.204956 6.900668 -0.565755 6.679941 2.265739 -7.374737 
-0.002858 0.002279 -0.012993 179.263110 1.144745 -17.710563 9.364865 9.956644 17.568878 -3.940916 8.187867 -10.354569 -4.357286 10.858901 1.987515 3.697941 5.875328 -2.437700 -7.254933 -10.020785 12.505901 3.211358 -15.585554 -1.185893 2.953175 -9.387180 1.673881 0.847212 -5.621661 3.871636 0.726972 -0.536585 0.033936 -0.362963 -2.731517 6.328003 0.400943 -2.801165 1.091035 5.156934 2.130087 9.872623 2.204647 -4.184853 -1.318359 -25.010382 -4.314781 9.596268 -51.023137 -6.727346 8.583685 5.186986 -26.136387 12.860060 -10.307776 -12.632921 5.223157 -7.561573 0.063083 -21.038288 20.713097 8.238005 8.922207 53.822927 1.137589 12.443913 -8.481272 22.638654 5.835815 4.892864 7.430095 -2.335651 5.628174 1.988585 -6.315003 
0.004486 0.003255 -0.021003 179.003646 -1.133017 -17.645257 9.898491 10.207327 17.365739 -3.409501 8.473542 -10.030941 -3.416608 11.456311 1.717790 3.313365 6.755340 -1.986381 -5.846509 -8.893606 6.287775 0.993259 -15.859615 8.724304 1.284849 -9.453150 0.237813 2.181746 -6.035272 4.048927 -0.519487 -1.734584 1.334154 0.907002 -3.044856 7.838213 0.629732 -3.337022 0.216189 7.528338 -6.280956 10.561262 5.467079 -11.933278 -1.363840 -24.655732 -5.143601 9.540575 -49.930086 -8.136510 9.487081 6.315367 -27.781125 9.500928 -9.490041 -12.187683 5.647333 -7.958795 -0.336438 -20.473078 20.876964 9.527275 7.688826 53.399470 0.671421 12.950897 -9.602803 24.052933 4.508442 4.463364 7.759333 -3.412957 5.373300 1.853460 -5.362942 
0.021026 0.004970 -0.023386 179.552411 -4.997442 -17.686410 10.790489 10.756497 17.498532 -3.000299 9.716651 -8.620486 -3.186323 12.453400 1.379406 3.607521 7.318102 -1.990266 -4.585222 -8.131464 1.903315 0.319033 -16.376876 15.545130 0.636523 -10.135135 -1.252579 1.818605 -5.692275 4.069699 -1.486926 -2.775079 2.188008 1.854796 -3.325019 8.362205 0.970283 -3.974741 0.456433 8.670663 -10.324626 11.490145 6.313599 -16.582777 -0.788726 -23.528472 -4.681207 9.781624 -49.834322 -7.918814 9.426526 7.042219 -27.335745 7.451798 -9.418297 -11.164427 5.846598 -8.583786 -0.767904 -20.858130 20.903613 9.583044 6.284871 53.872412 0.853308 12.822648 -10.954711 25.401733 3.019566 4.009079 7.621201 -3.964947 5.853515 1.708392 -5.186232 
0.048480 0.006078 -0.011165 -179.748781 -7.858397 -17.925641 12.539588 11.281078 18.936171 -2.734127 11.299717 -7.716747 -4.272879 12.944487 1.665764 3.916000 7.133277 -1.871835 -2.969891 -8.078393 5.255945 1.610310 -16.109007 11.107497 -0.474539 -9.947238 -3.623224 2.391519 -6.424749 5.640759 -1.450854 -3.307986 0.883316 2.230724 -4.114252 7.943972 1.353963 -4.886419 1.340462 8.501917 -12.371093 13.727362 5.687243 -18.967336 -0.393717 -23.417826 -2.884704 10.834249 -50.745631 -6.144030 8.261639 8.064538 -24.753500 6.433930 -9.373913 -10.495515 4.829122 -8.840667 -0.375395 -21.993659 21.013259 8.521329 5.900589 54.841176 0.125425 12.332890 -11.337751 24.186631 2.999770 3.351394 7.310256 -4.856308 5.786186 1.113753 -5.011267 
0.090323 0.007483 0.002976 -179.414981 -10.206790 -17.911247 15.329094 11.385890 17.875020 -1.355518 12.915039 -2.334205 -5.952142 13.700657 2.277788 4.854853 6.553171 -3.230066 -0.747418 -7.323497 9.164629 3.539577 -13.473182 6.110728 -1.939232 -9.557013 -5.287008 3.319598 -7.290065 7.126568 -1.208917 -3.405872 0.060877 2.778702 -4.647762 7.082216 1.792623 -5.271599 1.824043 8.735923 -14.493255 14.753462 5.224208 -19.937348 0.172042 -23.518843 0.129858 10.726979 -51.852465 -4.055531 8.823872 7.778509 -22.408771 7.980024 -9.391402 -10.046749 4.568290 -9.115967 -0.530005 -21.725090 21.614208 6.252414 4.960422 54.684372 -1.023734 12.627570 -9.316875 19.832030 4.825654 3.455181 6.383231 -4.915981 6.027765 1.079941 -4.572846 
